<svg width="36" height="36" viewBox="0 0 36 36" fill="none" xmlns="http://www.w3.org/2000/svg">
<path d="M22.575 12.8055L27.8775 7.5H21V4.5H33V16.5H30V9.621L24.6945 14.9265C26.4253 17.1953 27.2292 20.037 26.9435 22.8762C26.6579 25.7155 25.3039 28.3401 23.1558 30.2186C21.0077 32.097 18.2261 33.089 15.3741 32.9937C12.5221 32.8983 9.8129 31.7227 7.79512 29.7049C5.77733 27.6871 4.60172 24.9779 4.50635 22.1259C4.41098 19.2739 5.40297 16.4923 7.28145 14.3442C9.15993 12.1961 11.7845 10.8422 14.6238 10.5565C17.463 10.2708 20.3047 11.0747 22.5735 12.8055H22.575ZM15.75 30C17.938 30 20.0365 29.1308 21.5836 27.5836C23.1308 26.0365 24 23.938 24 21.75C24 19.562 23.1308 17.4635 21.5836 15.9164C20.0365 14.3692 17.938 13.5 15.75 13.5C13.562 13.5 11.4636 14.3692 9.91638 15.9164C8.36921 17.4635 7.50001 19.562 7.50001 21.75C7.50001 23.938 8.36921 26.0365 9.91638 27.5836C11.4636 29.1308 13.562 30 15.75 30Z" fill="#1178B3"/>
</svg>
